<svg width="32" height="32" viewBox="0 0 32 32" fill="none" xmlns="http://www.w3.org/2000/svg">
    <g clip-path="url(#clip0_1_38)">
        <path
            d="M9.1668 22.6973L8.53037 23.3337L8.53673 23.3399L9.1668 22.6973ZM9.1668 20.2754L8.53673 19.6327L9.1668 20.2754ZM11.6082 20.2754L12.2383 19.6327L11.6082 20.2754ZM11.6082 22.6973L12.2383 23.34L12.2446 23.3337L11.6082 22.6973ZM10.3875 22.2855C10.1319 22.2855 9.95401 22.2087 9.79686 22.0546L8.53673 23.3399C9.04365 23.8369 9.67959 24.0855 10.3875 24.0855V22.2855ZM9.80319 22.0609C9.64223 21.8999 9.56875 21.7261 9.56875 21.4863H7.76875C7.76875 22.197 8.0273 22.8306 8.5304 23.3337L9.80319 22.0609ZM9.56875 21.4863C9.56875 21.2366 9.64434 21.0676 9.79686 20.9181L8.53673 19.6327C8.02519 20.1342 7.76875 20.7726 7.76875 21.4863H9.56875ZM9.79686 20.9181C9.95401 20.764 10.1319 20.6871 10.3875 20.6871V18.8871C9.67959 18.8871 9.04365 19.1357 8.53673 19.6327L9.79686 20.9181ZM10.3875 20.6871C10.6431 20.6871 10.821 20.764 10.9781 20.9181L12.2383 19.6327C11.7313 19.1357 11.0954 18.8871 10.3875 18.8871V20.6871ZM10.9781 20.9181C11.1307 21.0676 11.2062 21.2366 11.2062 21.4863H13.0062C13.0062 20.7726 12.7498 20.1342 12.2383 19.6327L10.9781 20.9181ZM11.2062 21.4863C11.2062 21.7261 11.1328 21.8999 10.9718 22.0609L12.2446 23.3337C12.7477 22.8306 13.0062 22.197 13.0062 21.4863H11.2062ZM10.9781 22.0546C10.821 22.2087 10.6431 22.2855 10.3875 22.2855V24.0855C11.0954 24.0855 11.7313 23.8369 12.2383 23.3399L10.9781 22.0546ZM15.1078 25.1875L14.2387 25.4213L14.418 26.0875H15.1078V25.1875ZM10.4203 7.76562V6.86562H9.24615L9.55122 7.99946L10.4203 7.76562ZM13.0277 7.76562L13.8968 7.53179L13.7176 6.86562H13.0277V7.76562ZM17.7152 25.1875V26.0875H18.8894L18.5843 24.9537L17.7152 25.1875ZM15.9769 24.9537L11.2894 7.53179L9.55122 7.99946L14.2387 25.4213L15.9769 24.9537ZM10.4203 8.66562H13.0277V6.86562H10.4203V8.66562ZM12.1586 7.99946L16.8461 25.4213L18.5843 24.9537L13.8968 7.53179L12.1586 7.99946ZM17.7152 24.2875H15.1078V26.0875H17.7152V24.2875ZM19.3008 25.1875L18.4317 25.4213L18.6109 26.0875H19.3008V25.1875ZM14.6133 7.76562V6.86562H13.4391L13.7442 7.99946L14.6133 7.76562ZM17.2207 7.76562L18.0898 7.53179L17.9106 6.86562H17.2207V7.76562ZM21.9082 25.1875V26.0875H23.0824L22.7773 24.9537L21.9082 25.1875ZM20.1699 24.9537L15.4824 7.53179L13.7442 7.99946L18.4317 25.4213L20.1699 24.9537ZM14.6133 8.66562H17.2207V6.86562H14.6133V8.66562ZM16.3516 7.99946L21.0391 25.4213L22.7773 24.9537L18.0898 7.53179L16.3516 7.99946ZM21.9082 24.2875H19.3008V26.0875H21.9082V24.2875ZM21.759 22.6973L21.1226 23.3337L21.1289 23.3399L21.759 22.6973ZM21.759 20.2754L21.1289 19.6327L21.759 20.2754ZM24.2004 20.2754L24.8305 19.6327L24.2004 20.2754ZM24.2004 22.6973L24.8305 23.34L24.8368 23.3337L24.2004 22.6973ZM22.9797 22.2855C22.7241 22.2855 22.5462 22.2087 22.389 22.0546L21.1289 23.3399C21.6358 23.8369 22.2718 24.0855 22.9797 24.0855V22.2855ZM22.3954 22.0609C22.2344 21.8999 22.1609 21.7261 22.1609 21.4863H20.3609C20.3609 22.197 20.6195 22.8306 21.1226 23.3337L22.3954 22.0609ZM22.1609 21.4863C22.1609 21.2366 22.2365 21.0676 22.389 20.9181L21.1289 19.6327C20.6174 20.1342 20.3609 20.7726 20.3609 21.4863H22.1609ZM22.389 20.9181C22.5462 20.764 22.7241 20.6871 22.9797 20.6871V18.8871C22.2718 18.8871 21.6358 19.1357 21.1289 19.6327L22.389 20.9181ZM22.9797 20.6871C23.2353 20.6871 23.4132 20.764 23.5703 20.9181L24.8305 19.6327C24.3235 19.1357 23.6876 18.8871 22.9797 18.8871V20.6871ZM23.5703 20.9181C23.7228 21.0676 23.7984 21.2366 23.7984 21.4863H25.5984C25.5984 20.7726 25.342 20.1342 24.8305 19.6327L23.5703 20.9181ZM23.7984 21.4863C23.7984 21.7261 23.725 21.8999 23.564 22.0609L24.8368 23.3337C25.3399 22.8306 25.5984 22.197 25.5984 21.4863H23.7984ZM23.5703 22.0546C23.4132 22.2087 23.2353 22.2855 22.9797 22.2855V24.0855C23.6876 24.0855 24.3235 23.8369 24.8305 23.3399L23.5703 22.0546ZM31.3559 7.76562L32.225 7.99946L32.53 6.86562H31.3559V7.76562ZM26.6684 25.1875V26.0875H27.3582L27.5375 25.4213L26.6684 25.1875ZM24.0609 25.1875L23.1918 24.9537L22.8868 26.0875H24.0609V25.1875ZM28.7484 7.76562V6.86562H28.0586L27.8793 7.53179L28.7484 7.76562ZM30.4868 7.53179L25.7993 24.9537L27.5375 25.4213L32.225 7.99946L30.4868 7.53179ZM26.6684 24.2875H24.0609V26.0875H26.6684V24.2875ZM24.93 25.4213L29.6175 7.99946L27.8793 7.53179L23.1918 24.9537L24.93 25.4213ZM28.7484 8.66562H31.3559V6.86562H28.7484V8.66562Z"
            fill="#949654" />
    </g>
    <defs>
        <clipPath id="clip0_1_38">
            <rect width="32" height="32" fill="white" />
        </clipPath>
    </defs>
</svg>